<svg xmlns="http://www.w3.org/2000/svg" xmlns:xlink="http://www.w3.org/1999/xlink" width="96" zoomAndPan="magnify" viewBox="0 0 72 36.000001" height="48" preserveAspectRatio="xMidYMid meet" version="1.0"><defs><g/><clipPath id="9777196520"><path d="M 33 6.082031 L 45.722656 6.082031 L 45.722656 19 L 33 19 Z M 33 6.082031 " clip-rule="nonzero"/></clipPath></defs><g clip-path="url(#9777196520)"><path fill="#39b54a" d="M 33.976562 18.480469 C 33.480469 17.34375 32.738281 15.125 33.464844 12.753906 C 34.660156 8.867188 39.339844 6.082031 44.96875 6.441406 C 45.714844 11.183594 43.875 15.625 40.402344 17.609375 C 38.0625 18.941406 35.640625 18.789062 34.492188 18.628906 C 35.667969 17.742188 36.988281 16.605469 38.304688 15.167969 C 40.339844 12.945312 41.699219 10.738281 42.597656 8.980469 C 41.304688 10.769531 39.753906 12.703125 37.898438 14.679688 C 36.5625 16.105469 35.238281 17.371094 33.976562 18.480469 Z M 33.976562 18.480469 " fill-opacity="1" fill-rule="nonzero"/></g><path fill="#39b54a" d="M 32.476562 18.605469 C 31.597656 18.871094 29.90625 19.21875 28.230469 18.488281 C 25.480469 17.292969 23.832031 13.664062 24.578125 9.609375 C 28.121094 9.472656 31.222656 11.1875 32.382812 13.875 C 33.164062 15.683594 32.84375 17.425781 32.628906 18.246094 C 32.078125 17.316406 31.355469 16.265625 30.410156 15.1875 C 28.953125 13.519531 27.453125 12.347656 26.238281 11.546875 C 27.441406 12.636719 28.730469 13.925781 30.019531 15.4375 C 30.953125 16.53125 31.769531 17.597656 32.476562 18.605469 Z M 32.476562 18.605469 " fill-opacity="1" fill-rule="nonzero"/><g fill="#3d3d3d" fill-opacity="1"><g transform="translate(12.918907, 24.628886)"><g><path d="M 3.140625 0.1875 C 2.578125 0.1875 2.078125 0.0546875 1.640625 -0.203125 C 1.203125 -0.472656 0.859375 -0.84375 0.609375 -1.3125 C 0.367188 -1.78125 0.25 -2.320312 0.25 -2.9375 C 0.25 -3.5625 0.378906 -4.109375 0.640625 -4.578125 C 0.898438 -5.046875 1.257812 -5.410156 1.71875 -5.671875 C 2.1875 -5.941406 2.726562 -6.078125 3.34375 -6.078125 C 3.78125 -6.078125 4.175781 -5.992188 4.53125 -5.828125 C 4.894531 -5.671875 5.203125 -5.445312 5.453125 -5.15625 C 5.710938 -4.875 5.894531 -4.539062 6 -4.15625 L 4.703125 -3.890625 C 4.609375 -4.179688 4.429688 -4.414062 4.171875 -4.59375 C 3.921875 -4.78125 3.640625 -4.875 3.328125 -4.875 C 3.003906 -4.875 2.710938 -4.789062 2.453125 -4.625 C 2.203125 -4.457031 2.003906 -4.226562 1.859375 -3.9375 C 1.722656 -3.65625 1.65625 -3.320312 1.65625 -2.9375 C 1.65625 -2.550781 1.734375 -2.207031 1.890625 -1.90625 C 2.054688 -1.613281 2.28125 -1.382812 2.5625 -1.21875 C 2.84375 -1.050781 3.160156 -0.96875 3.515625 -0.96875 C 3.835938 -0.96875 4.117188 -1.03125 4.359375 -1.15625 C 4.609375 -1.289062 4.804688 -1.46875 4.953125 -1.6875 C 5.109375 -1.914062 5.191406 -2.171875 5.203125 -2.453125 L 2.6875 -2.453125 L 2.6875 -3.328125 L 6.578125 -3.328125 L 6.578125 0 L 5.546875 0 L 5.40625 -1.109375 C 5.21875 -0.703125 4.921875 -0.382812 4.515625 -0.15625 C 4.117188 0.0703125 3.660156 0.1875 3.140625 0.1875 Z M 3.140625 0.1875 "/></g></g></g><g fill="#3d3d3d" fill-opacity="1"><g transform="translate(19.651063, 24.628886)"><g><path d="M 0.046875 0 L 2.171875 -5.875 L 3.890625 -5.875 L 6.015625 0 L 4.53125 0 L 4.15625 -1.15625 L 1.890625 -1.15625 L 1.515625 0 Z M 2.15625 -2.15625 L 3.90625 -2.15625 L 3.03125 -4.765625 L 3.015625 -4.765625 Z M 2.15625 -2.15625 "/></g></g></g><g fill="#3d3d3d" fill-opacity="1"><g transform="translate(25.525194, 24.628886)"><g><path d="M 4.84375 0.15625 C 4.550781 0.15625 4.304688 0.0703125 4.109375 -0.09375 C 3.910156 -0.257812 3.773438 -0.476562 3.703125 -0.75 L 3.4375 -1.609375 C 3.382812 -1.785156 3.300781 -1.929688 3.1875 -2.046875 C 3.070312 -2.160156 2.929688 -2.21875 2.765625 -2.21875 L 1.859375 -2.21875 L 1.859375 0 L 0.453125 0 L 0.453125 -5.875 L 3.375 -5.875 C 4.070312 -5.875 4.625 -5.710938 5.03125 -5.390625 C 5.4375 -5.066406 5.640625 -4.625 5.640625 -4.0625 C 5.640625 -3.675781 5.515625 -3.335938 5.265625 -3.046875 C 5.023438 -2.765625 4.679688 -2.570312 4.234375 -2.46875 L 4.234375 -2.453125 C 4.390625 -2.398438 4.507812 -2.3125 4.59375 -2.1875 C 4.6875 -2.070312 4.757812 -1.929688 4.8125 -1.765625 L 5 -1.078125 C 5.03125 -0.984375 5.070312 -0.90625 5.125 -0.84375 C 5.175781 -0.789062 5.242188 -0.765625 5.328125 -0.765625 C 5.398438 -0.765625 5.472656 -0.785156 5.546875 -0.828125 C 5.617188 -0.867188 5.679688 -0.925781 5.734375 -1 L 6.03125 -0.328125 C 5.894531 -0.179688 5.722656 -0.0664062 5.515625 0.015625 C 5.304688 0.109375 5.082031 0.15625 4.84375 0.15625 Z M 1.859375 -3.1875 L 3.1875 -3.1875 C 3.5 -3.1875 3.75 -3.257812 3.9375 -3.40625 C 4.125 -3.550781 4.21875 -3.753906 4.21875 -4.015625 C 4.21875 -4.253906 4.125 -4.445312 3.9375 -4.59375 C 3.75 -4.75 3.5 -4.828125 3.1875 -4.828125 L 1.859375 -4.828125 Z M 1.859375 -3.1875 "/></g></g></g><g fill="#3d3d3d" fill-opacity="1"><g transform="translate(31.424075, 24.628886)"><g><path d="M 0.453125 0 L 0.453125 -5.875 L 2.875 -5.875 C 3.882812 -5.875 4.664062 -5.617188 5.21875 -5.109375 C 5.769531 -4.609375 6.046875 -3.882812 6.046875 -2.9375 C 6.046875 -1.988281 5.769531 -1.257812 5.21875 -0.75 C 4.664062 -0.25 3.882812 0 2.875 0 Z M 1.828125 -1.125 L 2.875 -1.125 C 3.4375 -1.125 3.867188 -1.28125 4.171875 -1.59375 C 4.484375 -1.90625 4.640625 -2.351562 4.640625 -2.9375 C 4.640625 -3.519531 4.484375 -3.96875 4.171875 -4.28125 C 3.867188 -4.59375 3.4375 -4.75 2.875 -4.75 L 1.828125 -4.75 Z M 1.828125 -1.125 "/></g></g></g><g fill="#3d3d3d" fill-opacity="1"><g transform="translate(37.537463, 24.628886)"><g><path d="M 0.453125 0 L 0.453125 -5.875 L 4.59375 -5.875 L 4.59375 -4.75 L 1.8125 -4.75 L 1.8125 -3.5 L 4.25 -3.5 L 4.25 -2.515625 L 1.8125 -2.515625 L 1.8125 -1.125 L 4.671875 -1.125 L 4.671875 0 Z M 0.453125 0 "/></g></g></g><g fill="#3d3d3d" fill-opacity="1"><g transform="translate(42.207058, 24.628886)"><g><path d="M 0.453125 0 L 0.453125 -5.875 L 2.109375 -5.875 L 4.5 -1.6875 L 4.515625 -1.6875 L 4.515625 -5.875 L 5.84375 -5.875 L 5.84375 0 L 4.1875 0 L 1.796875 -4.171875 L 1.78125 -4.171875 L 1.78125 0 Z M 0.453125 0 "/></g></g></g><g fill="#3d3d3d" fill-opacity="1"><g transform="translate(48.328697, 24.628886)"><g><path d="M 0.453125 0 L 0.453125 -5.875 L 4.59375 -5.875 L 4.59375 -4.75 L 1.8125 -4.75 L 1.8125 -3.5 L 4.25 -3.5 L 4.25 -2.515625 L 1.8125 -2.515625 L 1.8125 -1.125 L 4.671875 -1.125 L 4.671875 0 Z M 0.453125 0 "/></g></g></g><g fill="#3d3d3d" fill-opacity="1"><g transform="translate(52.998295, 24.628886)"><g><path d="M 4.84375 0.15625 C 4.550781 0.15625 4.304688 0.0703125 4.109375 -0.09375 C 3.910156 -0.257812 3.773438 -0.476562 3.703125 -0.75 L 3.4375 -1.609375 C 3.382812 -1.785156 3.300781 -1.929688 3.1875 -2.046875 C 3.070312 -2.160156 2.929688 -2.21875 2.765625 -2.21875 L 1.859375 -2.21875 L 1.859375 0 L 0.453125 0 L 0.453125 -5.875 L 3.375 -5.875 C 4.070312 -5.875 4.625 -5.710938 5.03125 -5.390625 C 5.4375 -5.066406 5.640625 -4.625 5.640625 -4.0625 C 5.640625 -3.675781 5.515625 -3.335938 5.265625 -3.046875 C 5.023438 -2.765625 4.679688 -2.570312 4.234375 -2.46875 L 4.234375 -2.453125 C 4.390625 -2.398438 4.507812 -2.3125 4.59375 -2.1875 C 4.6875 -2.070312 4.757812 -1.929688 4.8125 -1.765625 L 5 -1.078125 C 5.03125 -0.984375 5.070312 -0.90625 5.125 -0.84375 C 5.175781 -0.789062 5.242188 -0.765625 5.328125 -0.765625 C 5.398438 -0.765625 5.472656 -0.785156 5.546875 -0.828125 C 5.617188 -0.867188 5.679688 -0.925781 5.734375 -1 L 6.03125 -0.328125 C 5.894531 -0.179688 5.722656 -0.0664062 5.515625 0.015625 C 5.304688 0.109375 5.082031 0.15625 4.84375 0.15625 Z M 1.859375 -3.1875 L 3.1875 -3.1875 C 3.5 -3.1875 3.75 -3.257812 3.9375 -3.40625 C 4.125 -3.550781 4.21875 -3.753906 4.21875 -4.015625 C 4.21875 -4.253906 4.125 -4.445312 3.9375 -4.59375 C 3.75 -4.75 3.5 -4.828125 3.1875 -4.828125 L 1.859375 -4.828125 Z M 1.859375 -3.1875 "/></g></g></g><g fill="#3d3d3d" fill-opacity="1"><g transform="translate(39.15099, 28.274235)"><g><path d="M 0.65625 0.046875 C 0.539062 0.046875 0.4375 0.03125 0.34375 0 C 0.257812 -0.0390625 0.191406 -0.09375 0.140625 -0.15625 C 0.0859375 -0.21875 0.0546875 -0.300781 0.046875 -0.40625 L 0.328125 -0.453125 C 0.335938 -0.367188 0.375 -0.300781 0.4375 -0.25 C 0.5 -0.207031 0.570312 -0.1875 0.65625 -0.1875 C 0.738281 -0.1875 0.800781 -0.203125 0.84375 -0.234375 C 0.894531 -0.273438 0.921875 -0.320312 0.921875 -0.375 C 0.921875 -0.40625 0.898438 -0.429688 0.859375 -0.453125 C 0.828125 -0.484375 0.773438 -0.507812 0.703125 -0.53125 L 0.515625 -0.5625 C 0.367188 -0.59375 0.257812 -0.640625 0.1875 -0.703125 C 0.125 -0.765625 0.09375 -0.847656 0.09375 -0.953125 C 0.09375 -1.035156 0.113281 -1.109375 0.15625 -1.171875 C 0.195312 -1.242188 0.257812 -1.296875 0.34375 -1.328125 C 0.425781 -1.359375 0.519531 -1.375 0.625 -1.375 C 0.71875 -1.375 0.800781 -1.359375 0.875 -1.328125 C 0.945312 -1.296875 1.003906 -1.25 1.046875 -1.1875 C 1.097656 -1.132812 1.128906 -1.070312 1.140625 -1 L 0.859375 -0.9375 C 0.847656 -1 0.820312 -1.046875 0.78125 -1.078125 C 0.738281 -1.117188 0.679688 -1.140625 0.609375 -1.140625 C 0.546875 -1.140625 0.492188 -1.125 0.453125 -1.09375 C 0.421875 -1.0625 0.40625 -1.023438 0.40625 -0.984375 C 0.40625 -0.941406 0.421875 -0.90625 0.453125 -0.875 C 0.484375 -0.851562 0.53125 -0.835938 0.59375 -0.828125 L 0.796875 -0.796875 C 0.941406 -0.765625 1.050781 -0.71875 1.125 -0.65625 C 1.195312 -0.59375 1.234375 -0.507812 1.234375 -0.40625 C 1.234375 -0.3125 1.207031 -0.226562 1.15625 -0.15625 C 1.101562 -0.09375 1.035156 -0.0390625 0.953125 0 C 0.867188 0.03125 0.769531 0.046875 0.65625 0.046875 Z M 0.65625 0.046875 "/></g></g></g><g fill="#3d3d3d" fill-opacity="1"><g transform="translate(40.92144, 28.274235)"><g><path d="M 0.109375 0 L 0.109375 -1.328125 L 0.515625 -1.328125 L 0.90625 -0.359375 L 0.921875 -0.359375 L 1.3125 -1.328125 L 1.71875 -1.328125 L 1.71875 0 L 1.421875 0 L 1.421875 -0.9375 L 1.046875 0 L 0.78125 0 L 0.40625 -0.9375 L 0.390625 -0.9375 L 0.390625 0 Z M 0.109375 0 "/></g></g></g><g fill="#3d3d3d" fill-opacity="1"><g transform="translate(43.257512, 28.274235)"><g><path d="M 0.015625 0 L 0.5 -1.328125 L 0.890625 -1.328125 L 1.359375 0 L 1.03125 0 L 0.9375 -0.265625 L 0.4375 -0.265625 L 0.34375 0 Z M 0.484375 -0.484375 L 0.890625 -0.484375 L 0.6875 -1.078125 Z M 0.484375 -0.484375 "/></g></g></g><g fill="#3d3d3d" fill-opacity="1"><g transform="translate(45.144468, 28.274235)"><g><path d="M 1.09375 0.03125 C 1.03125 0.03125 0.976562 0.015625 0.9375 -0.015625 C 0.894531 -0.0546875 0.863281 -0.109375 0.84375 -0.171875 L 0.78125 -0.359375 C 0.769531 -0.398438 0.75 -0.429688 0.71875 -0.453125 C 0.695312 -0.484375 0.664062 -0.5 0.625 -0.5 L 0.421875 -0.5 L 0.421875 0 L 0.109375 0 L 0.109375 -1.328125 L 0.765625 -1.328125 C 0.921875 -1.328125 1.046875 -1.289062 1.140625 -1.21875 C 1.234375 -1.144531 1.28125 -1.046875 1.28125 -0.921875 C 1.28125 -0.835938 1.25 -0.757812 1.1875 -0.6875 C 1.132812 -0.625 1.0625 -0.582031 0.96875 -0.5625 C 1 -0.539062 1.023438 -0.515625 1.046875 -0.484375 C 1.066406 -0.460938 1.082031 -0.4375 1.09375 -0.40625 L 1.140625 -0.25 C 1.140625 -0.226562 1.144531 -0.207031 1.15625 -0.1875 C 1.175781 -0.175781 1.195312 -0.171875 1.21875 -0.171875 C 1.226562 -0.171875 1.238281 -0.175781 1.25 -0.1875 C 1.269531 -0.195312 1.289062 -0.210938 1.3125 -0.234375 L 1.375 -0.078125 C 1.34375 -0.046875 1.300781 -0.0195312 1.25 0 C 1.207031 0.0195312 1.15625 0.03125 1.09375 0.03125 Z M 0.421875 -0.71875 L 0.71875 -0.71875 C 0.789062 -0.71875 0.847656 -0.734375 0.890625 -0.765625 C 0.929688 -0.804688 0.953125 -0.851562 0.953125 -0.90625 C 0.953125 -0.96875 0.929688 -1.015625 0.890625 -1.046875 C 0.847656 -1.078125 0.789062 -1.09375 0.71875 -1.09375 L 0.421875 -1.09375 Z M 0.421875 -0.71875 "/></g></g></g><g fill="#3d3d3d" fill-opacity="1"><g transform="translate(47.037061, 28.274235)"><g><path d="M 0.421875 0 L 0.421875 -1.0625 L 0.03125 -1.0625 L 0.03125 -1.328125 L 1.140625 -1.328125 L 1.140625 -1.0625 L 0.75 -1.0625 L 0.75 0 Z M 0.421875 0 "/></g></g></g><g fill="#3d3d3d" fill-opacity="1"><g transform="translate(48.722948, 28.274235)"><g/></g></g><g fill="#3d3d3d" fill-opacity="1"><g transform="translate(49.6459, 28.274235)"><g><path d="M 0.015625 0 L 0.5 -1.328125 L 0.890625 -1.328125 L 1.359375 0 L 1.03125 0 L 0.9375 -0.265625 L 0.4375 -0.265625 L 0.34375 0 Z M 0.484375 -0.484375 L 0.890625 -0.484375 L 0.6875 -1.078125 Z M 0.484375 -0.484375 "/></g></g></g><g fill="#3d3d3d" fill-opacity="1"><g transform="translate(51.532855, 28.274235)"><g><path d="M 0.109375 0 L 0.109375 -1.328125 L 0.421875 -1.328125 L 0.421875 0 Z M 0.109375 0 "/></g></g></g></svg>